<svg width="18" height="18" viewBox="0 0 18 18" fill="none" xmlns="http://www.w3.org/2000/svg">
<path d="M6.70151 16.3804H11.1692C14.8922 16.3804 16.3814 14.8912 16.3814 11.1682V6.70053C16.3814 2.9775 14.8922 1.48828 11.1692 1.48828H6.70151C2.97847 1.48828 1.48926 2.9775 1.48926 6.70053V11.1682C1.48926 14.8912 2.97847 16.3804 6.70151 16.3804Z" stroke="#292D32" stroke-width="1.5" stroke-linecap="round" stroke-linejoin="round"/>
<path d="M6.70137 7.44523C7.52384 7.44523 8.19059 6.77848 8.19059 5.95601C8.19059 5.13354 7.52384 4.4668 6.70137 4.4668C5.8789 4.4668 5.21216 5.13354 5.21216 5.95601C5.21216 6.77848 5.8789 7.44523 6.70137 7.44523Z" stroke="#292D32" stroke-width="1.5" stroke-linecap="round" stroke-linejoin="round"/>
<path d="M1.98804 14.1105L5.65895 11.6458C6.24719 11.2512 7.09604 11.2959 7.62471 11.7501L7.87043 11.966C8.45123 12.4649 9.38943 12.4649 9.97023 11.966L13.0678 9.30776C13.6486 8.80887 14.5868 8.80887 15.1676 9.30776L16.3813 10.3502" stroke="#292D32" stroke-width="1.5" stroke-linecap="round" stroke-linejoin="round"/>
</svg>
