<svg width="20" height="20" viewBox="0 0 20 20" fill="none" xmlns="http://www.w3.org/2000/svg">
<g clip-path="url(#clip0_3317_30023)">
<path d="M16.9667 4.47154H14.3471L14.0421 3.55643C13.895 3.11209 13.6116 2.72547 13.232 2.45163C12.8525 2.17778 12.3962 2.03067 11.9282 2.03125H8.15914C7.69124 2.03089 7.23514 2.1781 6.85573 2.45192C6.47632 2.72575 6.19292 3.11224 6.04585 3.55643L5.74021 4.47154H3.12056C2.52986 4.47218 1.96354 4.70712 1.54585 5.12481C1.12816 5.5425 0.893224 6.10882 0.892578 6.69952V15.6676C0.893869 16.2578 1.12909 16.8235 1.54671 17.2407C1.96433 17.6579 2.53028 17.8925 3.12056 17.8931H16.9692C17.5595 17.8918 18.1252 17.6566 18.5423 17.239C18.9595 16.8214 19.1941 16.2554 19.1947 15.6651V6.69708C19.1934 6.1068 18.9582 5.54111 18.5406 5.12395C18.123 4.70679 17.557 4.47218 16.9667 4.47154ZM17.9746 15.6651C17.9743 15.9323 17.868 16.1885 17.679 16.3774C17.4901 16.5664 17.2339 16.6726 16.9667 16.673H3.12056C2.85336 16.6726 2.5972 16.5664 2.40827 16.3774C2.21933 16.1885 2.11304 15.9323 2.11272 15.6651V6.69708C2.11369 6.43031 2.22026 6.17477 2.40913 5.98636C2.59799 5.79795 2.85378 5.692 3.12056 5.69168H6.18007C6.30806 5.69158 6.43277 5.65123 6.53657 5.57635C6.64036 5.50146 6.71797 5.39582 6.75841 5.27439L7.20316 3.94017C7.26994 3.73948 7.39824 3.56493 7.56984 3.44129C7.74145 3.31766 7.94764 3.25121 8.15914 3.25139H11.9282C12.1398 3.25116 12.346 3.31766 12.5177 3.44143C12.6893 3.56519 12.8175 3.73993 12.8841 3.94078L13.3289 5.27439C13.3693 5.39582 13.4469 5.50146 13.5507 5.57635C13.6545 5.65123 13.7792 5.69158 13.9072 5.69168H16.9667C17.2339 5.692 17.4901 5.79829 17.679 5.98723C17.868 6.17616 17.9743 6.43232 17.9746 6.69952V15.6651Z" fill="#333333" fill-opacity="0.8"/>
<path d="M10.0443 6.30273C9.13933 6.30273 8.2547 6.57108 7.50226 7.07385C6.74981 7.57662 6.16336 8.29122 5.81704 9.12729C5.47073 9.96336 5.38012 10.8833 5.55667 11.7709C5.73322 12.6585 6.169 13.4738 6.8089 14.1137C7.4488 14.7536 8.26408 15.1893 9.15164 15.3659C10.0392 15.5424 10.9592 15.4518 11.7953 15.1055C12.6313 14.7592 13.3459 14.1727 13.8487 13.4203C14.3515 12.6679 14.6198 11.7832 14.6198 10.8783C14.6185 9.66516 14.1361 8.5021 13.2783 7.6443C12.4205 6.78651 11.2574 6.30403 10.0443 6.30273ZM10.0443 14.2337C9.38065 14.2337 8.73192 14.0369 8.18013 13.6682C7.62834 13.2995 7.19827 12.7754 6.94431 12.1623C6.69035 11.5492 6.6239 10.8745 6.75337 10.2237C6.88284 9.57278 7.20241 8.97491 7.67167 8.50565C8.14093 8.03639 8.7388 7.71682 9.38968 7.58735C10.0406 7.45788 10.7152 7.52433 11.3283 7.77829C11.9415 8.03225 12.4655 8.46232 12.8342 9.01411C13.2029 9.56591 13.3997 10.2146 13.3997 10.8783C13.3987 11.7679 13.0449 12.6208 12.4158 13.2498C11.7868 13.8789 10.9339 14.2327 10.0443 14.2337Z" fill="#333333" fill-opacity="0.8"/>
<path d="M16.1452 8.13225C16.4822 8.13225 16.7553 7.85911 16.7553 7.52218C16.7553 7.18525 16.4822 6.91211 16.1452 6.91211C15.8083 6.91211 15.5352 7.18525 15.5352 7.52218C15.5352 7.85911 15.8083 8.13225 16.1452 8.13225Z" fill="#333333" fill-opacity="0.8"/>
</g>
<defs>
<clipPath id="clip0_3317_30023">
<rect width="19.5223" height="19.5223" fill="white" transform="translate(0.283203 0.201172)"/>
</clipPath>
</defs>
</svg>
