<svg width="45" height="45" viewBox="0 0 45 45" fill="none" xmlns="http://www.w3.org/2000/svg">
<g filter="url(#filter0_d_2903_34702)">
<rect x="4" width="37" height="37" rx="18.5" fill="#31553E"/>
</g>
<path d="M29.75 8.02344C29.1763 8.02344 28.6123 8.24844 28.1795 8.68044L20.75 16.0859L20.585 16.2509L20.54 16.4857L20.0225 19.1107L19.79 20.2117L20.8903 19.9792L23.5153 19.4617L23.75 19.4167L23.915 19.2517L31.3205 11.8222C31.6307 11.5109 31.8418 11.1149 31.9272 10.6839C32.0127 10.2529 31.9687 9.80621 31.8007 9.40017C31.6328 8.99413 31.3485 8.64688 30.9835 8.40215C30.6186 8.15743 30.1894 8.02618 29.75 8.02494V8.02344ZM29.75 9.47844C29.9263 9.47844 30.098 9.56844 30.266 9.73569C30.6005 10.0702 30.6005 10.4317 30.266 10.7669L23 18.0314L21.71 18.2894L21.9688 16.9994L29.2347 9.73344C29.402 9.56619 29.5737 9.47619 29.75 9.47619V9.47844ZM14 11.0009V26.0009H29V16.1099L27.5 17.6099V24.5009H15.5V12.5009H22.391L23.891 11.0009H14Z" fill="white"/>
<defs>
<filter id="filter0_d_2903_34702" x="0" y="0" width="45" height="45" filterUnits="userSpaceOnUse" color-interpolation-filters="sRGB">
<feFlood flood-opacity="0" result="BackgroundImageFix"/>
<feColorMatrix in="SourceAlpha" type="matrix" values="0 0 0 0 0 0 0 0 0 0 0 0 0 0 0 0 0 0 127 0" result="hardAlpha"/>
<feOffset dy="4"/>
<feGaussianBlur stdDeviation="2"/>
<feComposite in2="hardAlpha" operator="out"/>
<feColorMatrix type="matrix" values="0 0 0 0 0 0 0 0 0 0 0 0 0 0 0 0 0 0 0.25 0"/>
<feBlend mode="normal" in2="BackgroundImageFix" result="effect1_dropShadow_2903_34702"/>
<feBlend mode="normal" in="SourceGraphic" in2="effect1_dropShadow_2903_34702" result="shape"/>
</filter>
</defs>
</svg>
